<svg xmlns="http://www.w3.org/2000/svg" viewBox="0 0 458.59 568.75"><title>rlogoAsset 1</title><g id="Layer_2" data-name="Layer 2"><g id="Layer_1-2" data-name="Layer 1"><path d="M339.84,333.24Q391,309,415,270t24-98.34q0-81.93-57-126.82T223.83,0H0V568.75H137.11V367.58h74.22L311.72,568.75H458.59v-5.86Zm-62.67-55.33V220.15q20.85-3.08,29.73-13.33t8.89-29.06q0-22.55-19.14-34.86T242,130.43h-15q-37.26,0-56,12.73t-18.71,40.07q0,23.42,10.43,34.87h38.62V176.4h41.19V278.08H140.28q-15.39-13.84-24.78-40.5t-9.4-58.45q0-48.87,29.91-78.1t83.22-31.27l21.54-.17q36.73,0,64.17,13t42.21,37.17q14.78,24.18,14.78,56,0,46.48-21.27,72.21T277.17,277.91Z"/></g></g></svg>