<svg version="1" xmlns="http://www.w3.org/2000/svg" width="5210.667" height="5210.667" viewBox="0 0 3908.000000 3908.000000"><path d="M979.5 980l-974 974 974.3 974.3 974.2 974.2 974.2-974.2 974.3-974.3-974-974C2392.8 444.3 1954.3 6 1954 6c-.3 0-438.8 438.3-974.5 974zm1874.5 74.5l899.5 899.5-899.8 899.8-899.7 899.7-899.7-899.7L154.5 1954l899.5-899.5C1548.7 559.8 1953.7 155 1954 155c.3 0 405.3 404.8 900 899.5z"/><path d="M1251 1189.5v36.5l2.3.5c3.5.9 59 11.5 59.9 11.5.4 0 .8 95.5.8 212.3v212.3l-31.2 6-31.3 6-.3 36.2-.2 36.2h246l-.2-36.2-.3-36.1-14-2.7c-7.7-1.5-21.8-4.2-31.2-6l-17.3-3.3v-155.8l53.8.3c46.6.4 54.8.7 62.2 2.2 29.8 6.2 51.4 24 61 50.4 5.6 15.4 6.2 20.6 7 61.2.7 32 1.1 38.9 2.8 46.8 8.8 40 27.2 63.2 58.2 73.1 15.4 5 19.2 5.3 64.3 5.8l42.7.5v-72.9l-9.7-1.2c-19.5-2.6-28.5-7.5-33.6-18.4-3.9-8.4-4.7-14.4-4.7-37.6 0-47.2-4.6-72.2-18.2-98.3-13.7-26.3-37.4-45.6-69.7-56.9l-9.2-3.2 11.8-6.1c36-18.6 61.2-45 72.4-75.7 7.2-19.7 9.7-40.1 7.9-64-2.4-31.8-10.2-56.1-25.8-79.9-8.3-12.5-28.8-32.7-42.7-41.9-27.1-18-59.1-29.3-97.5-34.5-21.9-3-50-3.6-182.7-3.6H1251v36.5zm284 57.5c41.1 5.1 66.5 25.3 76.1 60.5 3.1 11 3.3 38.4.5 49-6.9 26.2-23.7 43.5-50.4 51.9-17.3 5.4-22.7 5.9-76.9 6.3l-50.3.5V1246h46.3c26 0 50 .5 54.7 1zM1916.7 1916.8C1696.9 2136.6 1517 2317 1517 2317.5c0 1.3 72.2 73.5 73.5 73.5 1.3 0 800.5-799.2 800.5-800.5 0-1.3-72.2-73.5-73.5-73.5-.6 0-180.9 179.9-400.8 399.8zM2426.7 2071c-24.6 2.2-50.1 7.6-70.1 14.8-14 5-37.1 16.7-49.6 25-37 24.7-67.6 59.5-88.7 100.9-18.6 36.4-29.2 75.5-33.4 122.9-1.6 19.4-.6 91.3 1.5 106.4 9.8 68 33.4 118.9 75.5 162.3 55.6 57.3 123.9 81.5 217.4 76.9 37.1-1.9 63.3-5.8 90.7-13.7 36-10.4 80.6-34 103.8-54.9l5.2-4.8V2378h-204v83.9l3.3.5c1.7.3 19.2 1.7 38.7 3.1 19.5 1.4 37 2.8 38.8 3.1l3.2.5v99.8l-8.2 4c-10.8 5.1-27.8 10.5-39.8 12.5-25.4 4.3-59.8 4.1-82.5-.5-29.5-6-51.1-17.4-71.6-37.8-28-28.1-44.5-64.8-51.6-115.1-2.6-18.2-2.6-85.8 0-104 6.5-45.8 18.7-78.2 40.8-107.5 24.6-32.8 57.7-51.7 99.1-56.5 13.4-1.6 44.5-.8 57.8 1.5 25.2 4.2 51.2 14.5 63.8 25.2 3.4 2.8 3.4 2.8 11.3 40.3 4.3 20.6 8.1 38.5 8.4 39.7l.5 2.3h89l-.2-60.7-.3-60.8-11.3-9.7c-44.7-38.4-104.4-62.7-171.7-69.8-13.9-1.4-54-2.1-65.8-1z"/></svg>