<svg version="1" xmlns="http://www.w3.org/2000/svg" width="3176" height="3176" viewBox="0 0 2382.000000 2382.000000"><path d="M236 1191v1185h572v-838h308.1l209.1 419 209.1 419H2147v-25.6l-238.6-461.5c-131.2-253.8-242.3-468.7-247-477.6l-8.5-16.3 19.1-9.5c156.8-78.5 265.1-182.7 325.3-313 34.6-74.9 55.7-158.2 64.1-253.5 2.9-32.8 3.9-56.2 3.9-95.5 0-41-.9-60.4-4.4-94.5-19.5-190.3-102.2-339.5-248.4-448.3-112.4-83.6-253.6-136.9-427-161.1-32.8-4.6-66.9-7.8-123.5-11.8-12-.8-153.7-1.2-521.2-1.5L236 6v1185zm1065.5-892.1c39.8 4 67.6 8.2 93.5 14.1 71.2 16.2 134.2 44.1 185.6 82.2 92.1 68.4 148.1 169.9 160.4 290.8 3.3 32.4 3 82.8-.5 121-10.4 110.6-46.2 195.5-107.7 255.6-47.4 46.4-108.6 76.8-185.8 92.4-18.4 3.7-46.8 8-53.1 8h-2.9V924.1l3.8-.6c40.4-6.9 72.7-18 94.7-32.8 35.5-23.8 54.9-59.4 61-111.5 1.9-16.4 1.9-46.6 0-60.2-8.3-58-41.4-100.9-101.1-130.8-41-20.5-86.8-31.6-154.9-37.4-21.1-1.8-144.9-1.8-167.5 0-91 7.3-152.7 27.6-196 64.7-27.5 23.5-47.5 59-55.4 98.5-4.2 20.9-5 30.1-5 57 0 36.6 3.6 63.1 12 88.9 4.7 14.6 15 34.8 23.1 45.6l6.8 9 81.8.3 81.7.2V742h170v422H820.3l-11.6-11.9c-64-65.9-109.2-177-124.7-306.1-4.3-36.4-6.2-97.6-4.1-131 6.9-105 38.6-189.5 97.6-259.6 9.4-11.2 32.3-34.2 44.1-44.4 78.7-67.8 180.5-104.6 312.4-112.9 19.1-1.3 153.9-.6 167.5.8z"/></svg>